<svg width="7" height="7" viewBox="0 0 7 7" fill="none" xmlns="http://www.w3.org/2000/svg">
<path d="M4.16972 3.5L6.21222 1.46225C6.30166 1.37281 6.35191 1.25149 6.35191 1.125C6.35191 0.998506 6.30166 0.877194 6.21222 0.78775C6.12278 0.698305 6.00146 0.648056 5.87497 0.648056C5.74848 0.648056 5.62717 0.698305 5.53772 0.78775L3.49997 2.83025L1.46222 0.78775C1.37278 0.698305 1.25146 0.648056 1.12497 0.648056C0.998478 0.648056 0.877165 0.698305 0.787721 0.78775C0.698277 0.877194 0.648027 0.998506 0.648027 1.125C0.648027 1.25149 0.698277 1.37281 0.787721 1.46225L2.83022 3.5L0.787721 5.53775C0.7432 5.58191 0.707863 5.63444 0.683748 5.69233C0.659633 5.75021 0.647217 5.81229 0.647217 5.875C0.647217 5.93771 0.659633 5.99979 0.683748 6.05767C0.707863 6.11556 0.7432 6.16809 0.787721 6.21225C0.831878 6.25677 0.884414 6.29211 0.942297 6.31622C1.00018 6.34034 1.06227 6.35275 1.12497 6.35275C1.18768 6.35275 1.24976 6.34034 1.30764 6.31622C1.36553 6.29211 1.41806 6.25677 1.46222 6.21225L3.49997 4.16975L5.53772 6.21225C5.58188 6.25677 5.63441 6.29211 5.6923 6.31622C5.75018 6.34034 5.81227 6.35275 5.87497 6.35275C5.93768 6.35275 5.99976 6.34034 6.05764 6.31622C6.11553 6.29211 6.16806 6.25677 6.21222 6.21225C6.25674 6.16809 6.29208 6.11556 6.31619 6.05767C6.34031 5.99979 6.35273 5.93771 6.35273 5.875C6.35273 5.81229 6.34031 5.75021 6.31619 5.69233C6.29208 5.63444 6.25674 5.58191 6.21222 5.53775L4.16972 3.5Z" fill="#D6DDDE"/>
</svg>
